<?xml version="1.0" encoding="UTF-8" standalone="no"?>
<svg
   xmlns:dc="http://purl.org/dc/elements/1.1/"
   xmlns:cc="http://creativecommons.org/ns#"
   xmlns:rdf="http://www.w3.org/1999/02/22-rdf-syntax-ns#"
   xmlns:svg="http://www.w3.org/2000/svg"
   xmlns="http://www.w3.org/2000/svg"
   xmlns:sodipodi="http://sodipodi.sourceforge.net/DTD/sodipodi-0.dtd"
   xmlns:inkscape="http://www.inkscape.org/namespaces/inkscape"
   version="1.0"
   width="512.000000pt"
   height="512.000000pt"
   viewBox="0 0 512.000000 512.000000"
   preserveAspectRatio="xMidYMid meet"
   id="svg3495"
   inkscape:version="0.91 r13725"
   sodipodi:docname="geo_bike_pin.svg">
  <defs
     id="defs3513" />
  <sodipodi:namedview
     pagecolor="#ffffff"
     bordercolor="#666666"
     borderopacity="1"
     objecttolerance="10"
     gridtolerance="10"
     guidetolerance="10"
     inkscape:pageopacity="0"
     inkscape:pageshadow="2"
     inkscape:window-width="1280"
     inkscape:window-height="751"
     id="namedview3511"
     showgrid="false"
     inkscape:zoom="1"
     inkscape:cx="320.5"
     inkscape:cy="391"
     inkscape:window-x="0"
     inkscape:window-y="1"
     inkscape:window-maximized="1"
     inkscape:current-layer="svg3495" />
  <metadata
     id="metadata3497">
Created by potrace 1.13, written by Peter Selinger 2001-2015
<rdf:RDF>
  <cc:Work
     rdf:about="">
    <dc:format>image/svg+xml</dc:format>
    <dc:type
       rdf:resource="http://purl.org/dc/dcmitype/StillImage" />
  </cc:Work>
</rdf:RDF>
</metadata>
  <path
     style="fill:#008080"
     d="M 306.67567,602.16949 C 252.94901,509.21841 159.72851,325.45226 142.23284,278.00235 126.54741,235.46197 123.5807,220.85756 125.31337,194.71186 129.86257,126.0654 172.22043,63.26262 234.96779,32.130398 c 80.61555,-39.9975473 178.8302,-18.58292 238.12393,51.920306 35.02855,41.650716 52.13193,106.073536 40.53846,152.695056 -12.00284,48.2678 -48.61282,126.46045 -132.68383,283.38983 -48.63721,90.78766 -54.32775,100.33899 -59.78046,100.33899 -2.15033,0 -8.67093,-8.23729 -14.49022,-18.30509 z m 136.44297,-306.4006 c 36.77169,-18.37022 42.44811,-68.87862 10.68358,-95.06163 -11.21521,-9.24454 -33.83582,-15.57014 -45.34741,-12.68091 -6.5363,1.6405 -6.99154,0.90536 -11.63431,-18.78822 -4.52393,-19.18948 -4.54199,-20.81576 -0.28379,-25.52103 5.79495,-6.40334 5.82115,-16.32394 0.0599,-22.69001 -6.0422,-6.67656 -44.45137,-7.27497 -49.84457,-0.77656 -5.44067,6.55561 0.58162,10.22545 18.96199,11.55496 14.68552,1.06226 15.98384,1.64455 13.59969,6.09938 -1.44968,2.70875 -2.63578,7.93047 -2.63578,11.60382 l 0,6.67882 -45.42373,-1.28906 c -24.98305,-0.70898 -46.94916,-1.76541 -48.81356,-2.34762 -6.87556,-2.14709 -3.07972,-8.66348 7.45763,-12.80267 6.28228,-2.46775 10.84745,-6.06475 10.84745,-8.54695 0,-3.63457 -4.32759,-4.28596 -28.47457,-4.28596 -17.89824,0 -28.47458,1.04716 -28.47458,2.81926 0,1.55059 4.97064,7.69147 11.04586,13.6464 l 11.04586,10.82715 -9.53425,16.86207 c -9.23488,16.33261 -9.85846,16.84492 -19.85942,16.3157 -40.6196,-2.14946 -68.68921,21.61462 -68.58564,58.06546 0.14543,51.18697 63.88899,74.47869 98.62012,36.03549 18.02646,-19.95314 19.26729,-46.37549 3.29263,-70.11373 -8.67353,-12.88881 -8.79351,-13.45392 -4.58453,-21.59317 2.37714,-4.5969 5.33448,-8.72368 6.57184,-9.17063 1.23737,-0.44695 6.41887,9.97118 11.51443,23.15141 8.47138,21.91212 8.9173,24.45999 5.20787,29.75595 -5.18049,7.39619 -5.10168,11.05501 0.49205,22.84292 4.25722,8.97144 4.25722,9.79924 0,12.91219 -7.34862,5.37344 -5.2689,9.50794 4.78263,9.50794 9.15035,0 16.43497,-5.42248 10.11481,-7.5292 -5.25714,-1.75238 -0.66277,-6.03012 6.47646,-6.03012 8.87778,0 17.46708,-9.08998 17.46708,-18.48525 0,-6.42768 3.18988,-9.86496 20.13338,-21.69491 11.07336,-7.73142 20.70452,-14.05713 21.40258,-14.05713 0.69805,0 -1.11888,4.57627 -4.03763,10.16949 -8.04095,15.40892 -5.93185,40.28281 4.69808,55.40735 16.92551,24.08206 47.31125,32.07135 73.05782,19.209 z"
     id="path3517"
     inkscape:connector-curvature="0"
     transform="scale(0.8,0.8)" />
  <path
     style="fill:#008080"
     d="m 319.08468,224.97077 c 0.63465,-2.6142 3.28312,-8.41697 4.40988,-9.66203 0.5554,-0.61371 2.37138,-1.2876 4.08092,-1.51438 3.74058,-0.4962 5.00444,-1.61908 4.75096,-4.22097 -0.18,-1.8477 -0.37306,-1.98053 -3.62961,-2.4972 -2.15566,-0.34201 -6.00719,-0.28209 -10.31851,0.16053 -9.48508,0.97377 -9.69315,1.04853 -9.69315,3.48302 0,2.15388 1.24756,3.65366 3.64884,4.38653 1.20765,0.36858 1.39027,0.73273 1.05632,2.10641 -0.22205,0.91343 -1.10744,2.73619 -1.96752,4.05057 -2.51298,3.84036 -3.08554,3.00591 -9.74843,-14.20733 -7.63152,-19.71567 -13.62623,-35.65113 -13.62623,-36.222 0,-0.67166 85.7742,-0.0628 90.64129,0.64345 l 3.40296,0.49377 1.16249,4.62741 c 0.63936,2.54507 0.93722,4.82924 0.6619,5.07593 -2.79265,2.50226 -50.49137,36.71336 -58.12566,41.68965 -5.88972,3.83911 -7.33234,4.18471 -6.70645,1.60664 z"
     id="path3527"
     inkscape:connector-curvature="0"
     transform="scale(0.8,0.8)" />
  <ellipse
     style="fill:#008080"
     id="path3535"
     cx="334.81992"
     cy="195.95477"
     rx="24.809866"
     ry="24.77899" />
  <circle
     style="fill:#008080"
     id="path3557"
     cx="179.41713"
     cy="195.24226"
     r="26.411657" />
  <circle
     style="fill:#008080"
     id="path3559"
     cx="245.53732"
     cy="196.88161"
     r="9.1074696" />
</svg>
