<?xml version="1.0" encoding="UTF-8" standalone="no"?>
<svg
   xmlns:dc="http://purl.org/dc/elements/1.1/"
   xmlns:cc="http://creativecommons.org/ns#"
   xmlns:rdf="http://www.w3.org/1999/02/22-rdf-syntax-ns#"
   xmlns:svg="http://www.w3.org/2000/svg"
   xmlns="http://www.w3.org/2000/svg"
   xmlns:sodipodi="http://sodipodi.sourceforge.net/DTD/sodipodi-0.dtd"
   xmlns:inkscape="http://www.inkscape.org/namespaces/inkscape"
   version="1.0"
   width="512.000000pt"
   height="512.000000pt"
   viewBox="0 0 512.000000 512.000000"
   preserveAspectRatio="xMidYMid meet"
   id="svg3495"
   inkscape:version="0.91 r13725"
   sodipodi:docname="geo_bike_pin.svg">
  <defs
     id="defs3513" />
  <sodipodi:namedview
     pagecolor="#ffffff"
     bordercolor="#666666"
     borderopacity="1"
     objecttolerance="10"
     gridtolerance="10"
     guidetolerance="10"
     inkscape:pageopacity="0"
     inkscape:pageshadow="2"
     inkscape:window-width="1280"
     inkscape:window-height="751"
     id="namedview3511"
     showgrid="false"
     inkscape:zoom="2.2408163"
     inkscape:cx="303.5"
     inkscape:cy="412.5"
     inkscape:window-x="0"
     inkscape:window-y="1"
     inkscape:window-maximized="1"
     inkscape:current-layer="svg3495" />
  <metadata
     id="metadata3497">
Created by potrace 1.13, written by Peter Selinger 2001-2015
<rdf:RDF>
  <cc:Work
     rdf:about="">
    <dc:format>image/svg+xml</dc:format>
    <dc:type
       rdf:resource="http://purl.org/dc/dcmitype/StillImage" />
  </cc:Work>
</rdf:RDF>
</metadata>
  <path
     style="fill:#ffffff"
     d="m 407.79009,300.80633 c -11.87466,-2.17152 -23.20909,-8.37705 -31.71659,-17.36463 -10.87987,-11.49383 -15.7887,-25.25188 -15.13528,-42.41984 0.35794,-9.40453 1.13595,-12.37918 5.89433,-22.53643 2.69879,-5.76084 3.28432,-7.58652 2.43314,-7.58652 -0.63601,0 -8.94911,5.41188 -19.39866,12.62864 -17.56229,12.12904 -22.05195,16.61182 -22.08036,22.04657 -0.0269,5.14765 -2.35535,10.61819 -6.05815,14.23328 -3.20662,3.13066 -6.46893,4.66786 -10.84191,5.1087 -4.681,0.4719 -6.84552,1.10454 -8.25808,2.41365 -1.88373,1.74579 -1.56498,2.71504 1.38468,4.21045 3.44608,1.74709 2.20756,3.94595 -3.35639,5.95891 -3.5843,1.29675 -10.71888,1.34885 -13.23627,0.0967 -4.0039,-1.99161 -3.32338,-4.15316 2.88857,-9.17506 1.83505,-1.48351 1.98556,-1.76082 1.93754,-3.57013 -0.0367,-1.38327 -0.93018,-3.91252 -3.03021,-8.57798 -5.53326,-12.29282 -5.57244,-15.09102 -0.32201,-22.99873 1.5464,-2.32904 1.61922,-2.61108 1.61922,-6.27068 0,-3.26063 -0.25634,-4.59713 -1.71931,-8.96402 -4.55512,-13.59681 -13.74299,-34.85746 -15.91212,-36.82049 -0.71813,-0.6499 -1.11954,-0.74034 -1.6957,-0.38205 -1.22726,0.7632 -4.34757,5.43857 -6.59623,9.8836 -3.4386,6.79724 -3.15542,8.2091 3.77061,18.79924 8.87412,13.56886 12.22109,23.33497 12.24922,35.74192 0.0147,6.4813 -0.45887,9.74233 -2.23294,15.37646 -2.62674,8.34206 -7.36867,15.9694 -14.18102,22.81008 -16.02324,16.08985 -38.50061,21.08226 -60.03497,13.33426 -16.64715,-5.98959 -29.73555,-20.13047 -34.1108,-36.85375 -3.62137,-13.84178 -2.09161,-28.88249 4.2151,-41.443 7.17654,-14.29289 20.18696,-24.2711 37.25909,-28.57549 6.8537,-1.72802 11.89774,-2.24268 23.01624,-2.34843 l 9.62826,-0.0916 1.82892,-1.21096 c 2.5734,-1.70388 4.80467,-5.04419 12.95662,-19.39662 l 7.14229,-12.57479 -7.13246,-7.06091 c -7.27764,-7.20463 -13.19888,-13.85534 -14.39501,-16.1684 -0.52179,-1.00904 -0.54814,-1.38797 -0.12099,-1.73991 1.84046,-1.51639 19.15906,-2.53658 36.26752,-2.13643 13.10347,0.30648 16.77734,0.69919 18.49747,1.97725 3.27058,2.43006 0.39293,5.66489 -9.18647,10.32669 -6.69214,3.25672 -9.88921,5.61966 -10.89775,8.05449 -0.75297,1.81783 0.0696,3.72255 2.00415,4.64054 2.43592,1.15592 18.5116,2.00675 59.36207,3.14184 13.00865,0.36146 26.51377,0.78078 30.01138,0.93182 l 6.35929,0.27462 0,-4.51883 c 0,-5.16021 0.9057,-10.17044 2.48341,-13.73792 1.26882,-2.86902 1.31932,-3.38865 0.41702,-4.29094 -0.93916,-0.93917 -4.17388,-1.5122 -12.94141,-2.29258 -11.93448,-1.06226 -17.2001,-2.2365 -20.16289,-4.49633 -2.11287,-1.61157 -2.07591,-3.79867 0.10733,-6.34929 1.74844,-2.04267 4.22339,-3.02681 10.46084,-4.15969 4.84772,-0.88047 21.2472,-0.76656 26.79461,0.18611 9.4206,1.61781 12.62763,3.38344 15.02953,8.27449 1.11737,2.27533 1.24052,2.9913 1.24052,7.2119 0,4.25207 -0.1151,4.90905 -1.24351,7.09777 -0.68393,1.32658 -2.03301,3.35495 -2.99796,4.50747 -2.24985,2.6872 -2.67565,3.86735 -2.67565,7.41587 0,3.30794 0.94146,8.21573 4.013,20.91969 2.34798,9.71128 3.53983,13.32685 5.00868,15.19418 0.93526,1.189 1.00951,1.20403 4.10975,0.83201 5.64146,-0.67695 15.29236,-0.47633 19.44598,0.40425 9.09165,1.92745 19.91701,6.44595 25.88343,10.8037 8.81375,6.4374 16.64096,17.51324 19.86003,28.10284 2.47125,8.12952 3.16941,18.75101 1.76348,26.82907 -4.14326,23.80609 -22.57942,42.19363 -46.48501,46.36241 -4.65061,0.811 -14.70284,0.80103 -19.18721,-0.019 l 0,-2e-5 z M 232.15546,276.26738 c 10.77504,-2.49172 20.11857,-11.13662 23.62394,-21.85754 1.57268,-4.80993 1.94791,-12.83666 0.83412,-17.84295 -3.09623,-13.91697 -15.73158,-24.67349 -30.00781,-25.54576 -10.44278,-0.63804 -19.39581,2.92704 -26.61044,10.59625 -5.80408,6.16977 -8.77578,13.79843 -8.77578,22.52834 0,16.94296 12.29184,30.69515 29.45355,32.95282 2.40605,0.31652 8.39371,-0.11689 11.48242,-0.83116 z m 193.04242,-0.93346 c 20.01831,-4.48619 30.1989,-26.23976 20.96589,-44.79931 -2.48559,-4.99637 -8.42836,-10.84435 -13.52364,-13.30793 -4.86529,-2.35239 -8.96753,-3.30599 -14.27128,-3.31746 -5.16501,-0.0112 -8.82867,0.85672 -13.61111,3.22439 -6.60029,3.26764 -11.19712,7.92343 -14.33285,14.51666 -2.12027,4.45815 -2.97082,8.22591 -2.97185,13.16485 -0.002,8.75256 2.86906,15.71633 9.03032,21.90436 6.14565,6.17236 13.28323,9.21725 21.7974,9.29878 2.03784,0.0195 5.15054,-0.28844 6.91712,-0.68434 z M 310.31809,257.06224 c 4.54924,-1.35097 8.07383,-6.02996 8.08283,-10.73017 0.009,-4.78817 -2.20832,-8.37927 -6.46953,-10.47707 -2.61688,-1.28828 -3.18004,-1.40353 -5.822,-1.19146 -12.70835,1.0201 -14.6626,18.1338 -2.56357,22.44963 2.24543,0.80096 3.94673,0.78817 6.77227,-0.0509 z m 11.3404,-31.04462 c 1.03337,-0.52077 3.98746,-2.36427 6.56464,-4.09666 6.0301,-4.05345 40.11242,-28.38372 48.97769,-34.9636 6.68727,-4.96335 6.80542,-5.08036 6.79791,-6.73194 -0.007,-1.59088 -1.464,-7.98699 -1.92382,-8.44681 -0.1181,-0.1181 -3.57036,-0.40481 -7.67171,-0.63715 -8.63685,-0.48927 -85.66734,-0.77978 -86.12581,-0.32482 -0.42748,0.42421 -0.0687,1.44341 7.59077,21.56223 8.84894,23.24322 11.20146,28.90667 12.52325,30.14842 l 1.08855,1.02265 1.03984,-0.97688 c 1.36952,-1.28659 2.97656,-4.54985 2.97656,-6.04419 0,-0.8873 -0.31171,-1.30749 -1.22723,-1.65434 -2.15168,-0.81519 -3.23543,-2.17663 -3.23543,-4.06446 0,-2.12582 0.57348,-2.39362 6.61623,-3.08967 6.98943,-0.80511 14.02451,-0.71296 15.42089,0.20198 2.61577,1.71392 0.86326,4.86572 -3.12621,5.62231 -3.88315,0.73643 -4.56485,1.26003 -6.40449,4.91915 -1.98462,3.9475 -2.91798,6.81285 -2.54005,7.79774 0.34358,0.89533 0.40978,0.88926 2.65842,-0.24396 z"
     id="path3561"
     inkscape:connector-curvature="0"
     transform="scale(0.8,0.8)" />
  <g
     inkscape:groupmode="layer"
     id="layer1"
     inkscape:label="background">
    <rect
       style="fill:#ffffff"
       id="rect3572"
       width="257.76321"
       height="161.01276"
       x="128.52458"
       y="87.868851" />
  </g>
  <path
     style="fill:#008080"
     d="M 306.67567,602.16949 C 252.94901,509.21841 159.72851,325.45226 142.23284,278.00235 126.54741,235.46197 123.5807,220.85756 125.31337,194.71186 129.86257,126.0654 172.22043,63.26262 234.96779,32.130398 c 80.61555,-39.9975473 178.8302,-18.58292 238.12393,51.920306 35.02855,41.650716 52.13193,106.073536 40.53846,152.695056 -12.00284,48.2678 -48.61282,126.46045 -132.68383,283.38983 -48.63721,90.78766 -54.32775,100.33899 -59.78046,100.33899 -2.15033,0 -8.67093,-8.23729 -14.49022,-18.30509 z m 136.44297,-306.4006 c 36.77169,-18.37022 42.44811,-68.87862 10.68358,-95.06163 -11.21521,-9.24454 -33.83582,-15.57014 -45.34741,-12.68091 -6.5363,1.6405 -6.99154,0.90536 -11.63431,-18.78822 -4.52393,-19.18948 -4.54199,-20.81576 -0.28379,-25.52103 5.79495,-6.40334 5.82115,-16.32394 0.0599,-22.69001 -6.0422,-6.67656 -44.45137,-7.27497 -49.84457,-0.77656 -5.44067,6.55561 0.58162,10.22545 18.96199,11.55496 14.68552,1.06226 15.98384,1.64455 13.59969,6.09938 -1.44968,2.70875 -2.63578,7.93047 -2.63578,11.60382 l 0,6.67882 -45.42373,-1.28906 c -24.98305,-0.70898 -46.94916,-1.76541 -48.81356,-2.34762 -6.87556,-2.14709 -3.07972,-8.66348 7.45763,-12.80267 6.28228,-2.46775 10.84745,-6.06475 10.84745,-8.54695 0,-3.63457 -4.32759,-4.28596 -28.47457,-4.28596 -17.89824,0 -28.47458,1.04716 -28.47458,2.81926 0,1.55059 4.97064,7.69147 11.04586,13.6464 l 11.04586,10.82715 -9.53425,16.86207 c -9.23488,16.33261 -9.85846,16.84492 -19.85942,16.3157 -40.6196,-2.14946 -68.68921,21.61462 -68.58564,58.06546 0.14543,51.18697 63.88899,74.47869 98.62012,36.03549 18.02646,-19.95314 19.26729,-46.37549 3.29263,-70.11373 -8.67353,-12.88881 -8.79351,-13.45392 -4.58453,-21.59317 2.37714,-4.5969 5.33448,-8.72368 6.57184,-9.17063 1.23737,-0.44695 6.41887,9.97118 11.51443,23.15141 8.47138,21.91212 8.9173,24.45999 5.20787,29.75595 -5.18049,7.39619 -5.10168,11.05501 0.49205,22.84292 4.25722,8.97144 4.25722,9.79924 0,12.91219 -7.34862,5.37344 -5.2689,9.50794 4.78263,9.50794 9.15035,0 16.43497,-5.42248 10.11481,-7.5292 -5.25714,-1.75238 -0.66277,-6.03012 6.47646,-6.03012 8.87778,0 17.46708,-9.08998 17.46708,-18.48525 0,-6.42768 3.18988,-9.86496 20.13338,-21.69491 11.07336,-7.73142 20.70452,-14.05713 21.40258,-14.05713 0.69805,0 -1.11888,4.57627 -4.03763,10.16949 -8.04095,15.40892 -5.93185,40.28281 4.69808,55.40735 16.92551,24.08206 47.31125,32.07135 73.05782,19.209 z"
     id="path3517"
     inkscape:connector-curvature="0"
     transform="scale(0.8,0.8)" />
  <path
     style="fill:#008080"
     d="m 251.45771,179.97662 c 0.42981,-2.09136 2.22345,-6.73358 2.98654,-7.72963 0.37614,-0.49097 1.606,-1.03008 2.76376,-1.2115 2.53328,-0.39696 3.38921,-1.29527 3.21754,-3.37678 -0.1219,-1.47816 -0.25265,-1.58442 -2.45811,-1.99776 -1.4599,-0.27361 -4.06831,-0.22567 -6.98811,0.12843 -6.42368,0.77901 -6.5646,0.83882 -6.5646,2.78641 0,1.72311 0.8449,2.92293 2.47115,3.50923 0.81787,0.29486 0.94154,0.58618 0.71538,1.68512 -0.15037,0.73075 -0.75,2.18896 -1.33248,3.24046 -1.70189,3.07229 -2.08965,2.40473 -6.60203,-11.36586 -5.16837,-15.77254 -9.22823,-28.52091 -9.22823,-28.9776 0,-0.53733 58.08973,-0.0502 61.38592,0.51476 l 2.30462,0.39501 0.78729,3.70193 c 0.433,2.03606 0.63472,3.86339 0.44826,4.06074 -1.89129,2.00181 -34.19478,29.37069 -39.36503,33.35172 -3.98875,3.07129 -4.96575,3.34777 -4.54187,1.28532 z"
     id="path3527"
     inkscape:connector-curvature="0" />
  <ellipse
     style="fill:#008080"
     id="path3535"
     cx="334.81992"
     cy="195.95477"
     rx="24.809866"
     ry="24.77899" />
  <g
     id="g3579">
    <circle
       r="47.304192"
       cy="194.08015"
       cx="177.97086"
       id="path3577"
       style="fill:#ffffff" />
  </g>
  <circle
     style="fill:#008080"
     id="path3559"
     cx="245.53732"
     cy="196.88161"
     r="9.1074696" />
  <circle
     style="fill:#008080"
     id="path3557"
     cx="177.98907"
     cy="194.88525"
     r="26.411657" />
  <g
     id="g3584"
     transform="matrix(0.9961947,-0.08715574,0.08715574,0.9961947,-17.667226,23.224888)">
    <rect
       transform="matrix(0.5591929,0.82903757,-0.82903757,0.5591929,0,0)"
       y="-152.3145"
       x="303.61078"
       height="45.697632"
       width="6.7832422"
       id="rect3582"
       style="fill:#ffffff" />
  </g>
</svg>
